# xmcd
#
# Track frame offsets:
#	150
#	12596
#	28267
#	44227
#	63236
#	80758
#	94573
#	113322
#	128098
#	146209
#	161873
#
# Disc length: 2417 seconds
# Revision: 2
# Processed by: cddbd v1.5.2PL0 Copyright (c) Steve Scherf et al.
# Submitted via: dBpowerAMP V12.0
#
DISCID=99096f0b
DTITLE=Van Zant - Get Right with the Man
DYEAR=2005
DGENRE=Country/Rock
TTITLE0=Takin' Up Space
TTITLE1=Nobody Gonna Tell Me What to Do
TTITLE2=Sweet Mama
TTITLE3=Help Somebody
TTITLE4=Things I Miss the Most
TTITLE5=I Know My History
TTITLE6=I Can't Help Myself
TTITLE7=I'm Doin' Alright
TTITLE8=Lovin' You
TTITLE9=Plain Jane
TTITLE10=Been There Done That
EXTD=
EXTT0=
EXTT1=
EXTT2=
EXTT3=
EXTT4=
EXTT5=
EXTT6=
EXTT7=
EXTT8=
EXTT9=
EXTT10=
PLAYORDER=
